<?xml version="1.0" standalone="no"?>
<!DOCTYPE svg PUBLIC "-//W3C//DTD SVG 20010904//EN"
 "http://www.w3.org/TR/2001/REC-SVG-20010904/DTD/svg10.dtd">
<svg version="1.0" xmlns="http://www.w3.org/2000/svg"
 width="500.000000pt" height="500.000000pt" viewBox="0 0 500.000000 500.000000"
 preserveAspectRatio="xMidYMid meet">
<metadata>
Created by potrace 1.14, written by Peter Selinger 2001-2017
</metadata>
<g transform="translate(0.000000,500.000000) scale(0.100000,-0.100000)"
fill="#000000" stroke="none">
<path d="M2270 4994 c-14 -2 -77 -11 -140 -20 -690 -96 -1323 -500 -1720
-1098 -541 -813 -548 -1906 -18 -2726 344 -531 877 -917 1487 -1076 210 -55
335 -68 621 -68 227 0 284 3 396 22 710 119 1318 517 1712 1122 351 540 477
1239 338 1883 -183 847 -803 1545 -1627 1832 -271 95 -461 126 -784 130 -132
2 -251 1 -265 -1z"/>
</g>
</svg>
